<svg width="34" height="33" viewBox="0 0 34 33" fill="none" xmlns="http://www.w3.org/2000/svg">
<path fill-rule="evenodd" clip-rule="evenodd" d="M31.3991 8.57369C35.8242 16.4128 33.057 26.3548 25.2182 30.7797C17.3795 35.2047 7.43761 32.4369 3.01245 24.5978C-1.4127 16.7587 1.35456 6.81669 9.1933 2.39175C17.032 -2.03319 26.9739 0.734558 31.3991 8.57369ZM17.6387 9.38732C19.9958 8.95083 22.0131 9.15082 22.7964 11.2002C23.3716 12.6999 22.9795 13.8036 22.089 14.6152C23.903 14.5508 25.1608 15.662 25.6592 17.5828C26.1721 20.4623 24.2808 21.7967 21.3297 22.8002L22.1403 25.7493L20.3573 26.2432L19.5573 23.3338C19.0953 23.4624 18.6204 23.5889 18.129 23.7153L18.9333 26.6386L17.1521 27.1315L16.3376 24.1777L12.7412 25.164L12.5112 22.9416C12.5112 22.9416 13.8359 22.5952 13.8073 22.5821C14.3118 22.4413 14.3463 22.0426 14.3161 21.808L12.1132 13.8054C11.9459 13.4634 11.5955 13.1111 10.8729 13.3107C10.8874 13.2803 9.57813 13.6707 9.57813 13.6707L9.05489 11.7718L12.6482 10.7697L11.8449 7.84817L13.627 7.35473L14.4152 10.2181C14.8893 10.0757 15.3662 9.93406 15.8345 9.80426L15.051 6.95933L16.834 6.46539L17.6387 9.38732ZM16.3075 15.7688C17.532 15.4499 20.1966 14.7561 19.6911 12.9168C19.1727 11.0357 16.6399 11.809 15.3998 12.1876L15.3997 12.1876C15.2592 12.2305 15.1353 12.2683 15.0328 12.2966L16.0105 15.8476C16.095 15.8241 16.1952 15.798 16.3075 15.7688L16.3075 15.7688ZM17.9285 21.4595C19.3939 21.0754 22.5989 20.2354 22.0407 18.2094C21.4704 16.1376 18.4239 17.0601 16.9374 17.5101L16.9374 17.5101L16.9373 17.5102C16.7713 17.5604 16.6247 17.6048 16.5032 17.6385L17.5801 21.5524C17.6796 21.5248 17.7971 21.494 17.9285 21.4595Z" fill="#FEAE4F"/>
</svg>
