<svg width="16" height="16" viewBox="0 0 16 16" fill="none" xmlns="http://www.w3.org/2000/svg">
<path d="M11 4.70713C11.1953 4.51187 11.1953 4.19529 11 4.00002C10.8048 3.80476 10.4882 3.80476 10.2929 4.00002L3.99782 10.2951L1.37377 7.70356C1.1773 7.50952 0.860723 7.51149 0.666681 7.70797C0.472639 7.90444 0.474612 8.22102 0.671087 8.41506L3.64867 11.3558C3.84428 11.549 4.15917 11.548 4.35357 11.3536L11 4.70713Z" fill="#3FAE3B"/>
<path d="M7.98425 11.358L6.97922 10.3778L7.68638 9.67068L8.32894 10.2973L14.6262 4.00002C14.8215 3.80476 15.1381 3.80476 15.3333 4.00002C15.5286 4.19529 15.5286 4.51187 15.3333 4.70713L8.6869 11.3536C8.49336 11.5471 8.1802 11.5491 7.98425 11.358Z" fill="#3FAE3B"/>
</svg>
