<svg width="14" height="14" viewBox="0 0 14 14" fill="none" xmlns="http://www.w3.org/2000/svg">
<path fill-rule="evenodd" clip-rule="evenodd" d="M1.66668 0.333344C0.930297 0.333344 0.333344 0.930297 0.333344 1.66668V6.33334C0.333344 7.06974 0.930297 7.66668 1.66668 7.66668H12.3333C13.0697 7.66668 13.6667 7.06974 13.6667 6.33334V1.66668C13.6667 0.930297 13.0697 0.333344 12.3333 0.333344H1.66668ZM7.00001 5.66668C7.92048 5.66668 8.66668 4.92048 8.66668 4.00001C8.66668 3.07954 7.92048 2.33334 7.00001 2.33334C6.07954 2.33334 5.33334 3.07954 5.33334 4.00001C5.33334 4.92048 6.07954 5.66668 7.00001 5.66668Z" fill="white"/>
<path d="M13.6667 10C13.6667 10.2761 13.4428 10.5 13.1667 10.5H0.833344C0.557204 10.5 0.333344 10.2761 0.333344 10C0.333344 9.72388 0.557204 9.50001 0.833344 9.50001H13.1667C13.4428 9.50001 13.6667 9.72388 13.6667 10Z" fill="white"/>
<path d="M13.1667 13.5C13.4428 13.5 13.6667 13.2761 13.6667 13C13.6667 12.7239 13.4428 12.5 13.1667 12.5H0.833344C0.557204 12.5 0.333344 12.7239 0.333344 13C0.333344 13.2761 0.557204 13.5 0.833344 13.5H13.1667Z" fill="white"/>
</svg>
