<svg width="14" height="12" viewBox="0 0 14 12" fill="none" xmlns="http://www.w3.org/2000/svg">
<path d="M3.49999 8.99999C3.96024 8.99999 4.33333 8.62692 4.33333 8.16666C4.33333 7.70639 3.96024 7.33332 3.49999 7.33332C3.03976 7.33332 2.66666 7.70639 2.66666 8.16666C2.66666 8.62692 3.03976 8.99999 3.49999 8.99999Z" fill="white"/>
<path fill-rule="evenodd" clip-rule="evenodd" d="M1.66666 0.666656C0.930282 0.666656 0.333328 1.26361 0.333328 1.99999V9.99999C0.333328 10.7364 0.930282 11.3333 1.66666 11.3333H12.3333C13.0697 11.3333 13.6667 10.7364 13.6667 9.99999V1.99999C13.6667 1.26361 13.0697 0.666656 12.3333 0.666656H1.66666ZM12.6667 1.99999C12.6667 1.8159 12.5174 1.66666 12.3333 1.66666H1.66666C1.48257 1.66666 1.33333 1.8159 1.33333 1.99999V3.99999H12.6667V1.99999ZM12.6667 4.99999H1.33333V9.99999C1.33333 10.1841 1.48257 10.3333 1.66666 10.3333H12.3333C12.5174 10.3333 12.6667 10.1841 12.6667 9.99999V4.99999Z" fill="white"/>
</svg>
