<svg width="12" height="14" viewBox="0 0 12 14" fill="none" xmlns="http://www.w3.org/2000/svg">
<path d="M8.66666 4.33334C8.66666 4.60949 8.44279 4.83334 8.16666 4.83334H3.83332C3.55718 4.83334 3.33332 4.60948 3.33332 4.33334C3.33332 4.0572 3.55718 3.83334 3.83332 3.83334H8.16666C8.44279 3.83334 8.66666 4.0572 8.66666 4.33334Z" fill="white"/>
<path d="M6.83332 7.50001C7.10946 7.50001 7.33332 7.27614 7.33332 7.00001C7.33332 6.72388 7.10946 6.50001 6.83332 6.50001H3.83332C3.55718 6.50001 3.33332 6.72388 3.33332 7.00001C3.33332 7.27614 3.55718 7.50001 3.83332 7.50001H6.83332Z" fill="white"/>
<path fill-rule="evenodd" clip-rule="evenodd" d="M8.33332 11.6667L10.2301 13.3105C10.6617 13.6847 11.3333 13.378 11.3333 12.8067V1.66668C11.3333 0.930297 10.7364 0.333344 9.99999 0.333344H1.99999C1.26361 0.333344 0.666656 0.930297 0.666656 1.66668V12.8067C0.666656 13.378 1.33823 13.6847 1.76994 13.3105L3.66666 11.6667L5.56406 13.3065C5.81439 13.5229 6.18559 13.5229 6.43592 13.3065L8.33332 11.6667ZM3.01172 10.911C3.3872 10.5856 3.94464 10.5852 4.32056 10.9101L5.99999 12.3616L7.67939 10.9101C8.05532 10.5852 8.61279 10.5856 8.98826 10.911L10.3333 12.0767V1.66668C10.3333 1.48258 10.1841 1.33334 9.99999 1.33334H1.99999C1.8159 1.33334 1.66666 1.48258 1.66666 1.66668V12.0767L3.01172 10.911Z" fill="white"/>
</svg>
