<svg width="24" height="24" viewBox="0 0 24 24" fill="none" xmlns="http://www.w3.org/2000/svg">
<ellipse cx="12" cy="12" rx="11.7188" ry="12" fill="#26A17B"/>
<path d="M10.7474 12.6456V10.1096H7.39746V7.88672H16.7586V10.1409H13.4086V12.6456H10.7474Z" fill="white"/>
<path d="M11.9995 11.644C15.506 11.644 17.3219 12.6146 17.5411 12.9277C17.3219 13.2407 15.5373 13.7104 11.9995 13.7104C8.49299 13.7104 6.67712 13.2407 6.45796 12.9277C6.67712 12.5833 8.49299 11.644 11.9995 11.644ZM11.9995 11.3936C8.64954 11.3936 5.95703 12.0823 5.95703 12.9277C5.95703 13.773 8.64954 14.4618 11.9995 14.4618C15.3495 14.4618 18.042 13.773 18.042 12.9277C18.042 12.0823 15.3495 11.3936 11.9995 11.3936Z" fill="white"/>
<path d="M13.4082 13.4282V11.6749C12.9699 11.6436 12.5003 11.6123 12.0306 11.6123C11.5923 11.6123 11.1853 11.6123 10.7783 11.6436V13.3969C11.154 13.3969 11.5923 13.4282 12.0306 13.4282C12.5003 13.4595 12.9699 13.4595 13.4082 13.4282Z" fill="white"/>
<path d="M11.9994 14.4611C11.5611 14.4611 11.1541 14.4611 10.7471 14.4297V19.0947H13.377V14.3984C12.9386 14.4297 12.469 14.4611 11.9994 14.4611Z" fill="white"/>
</svg>
