<svg width="48" height="22" viewBox="0 0 48 22" fill="none" xmlns="http://www.w3.org/2000/svg">
<path fill-rule="evenodd" clip-rule="evenodd" d="M11.3775 20.9303L11.3774 20.9304H13.1898L13.5367 19.5753H16.1252L16.463 20.9304H18.2755L15.9655 13.3583H13.6829L11.4083 20.8291L9.64715 17.8789C10.1342 17.758 10.5047 17.5142 10.7589 17.1469C11.013 16.7797 11.1401 16.303 11.1401 15.7167C11.1401 15.3307 11.0753 14.9772 10.946 14.6564C10.8167 14.3358 10.6318 14.0719 10.3913 13.8652C10.1783 13.6825 9.92489 13.5523 9.63118 13.4748C9.33747 13.3971 8.81787 13.3583 8.07224 13.3583H6.16853V20.9303H7.87579V17.9666L9.40978 20.9303H11.3775ZM15.7418 18.1012H13.9294L14.6006 15.603C14.6416 15.4417 14.6805 15.2797 14.7171 15.117C14.7569 14.9397 14.7957 14.7621 14.8334 14.5842C14.8912 14.8498 14.9384 15.067 14.9749 15.2358C15.0114 15.4048 15.0403 15.5273 15.0616 15.603L15.7418 18.1012ZM8.21369 16.9376H7.87591V14.9461H8.24113C8.63986 14.9461 8.92379 15.0264 9.09257 15.1867C9.26157 15.347 9.34591 15.6166 9.34591 15.996C9.34591 16.3203 9.25528 16.5583 9.07424 16.7099C8.89309 16.8618 8.60635 16.9376 8.21369 16.9376Z" fill="#00AFD8"/>
<path d="M18.9147 13.3583V20.9304H20.6722V17.191C20.6711 16.9735 20.6627 16.7561 20.6471 16.5393C20.6304 16.2944 20.6037 16.0136 20.5672 15.6962C20.6982 16.0203 20.8191 16.3023 20.9302 16.5419C21.0411 16.7816 21.1226 16.941 21.1745 17.0204L23.699 20.9304H25.4475V13.3583H23.699V17.0978C23.7001 17.3153 23.7085 17.5327 23.7242 17.7495C23.7442 18.0296 23.7708 18.309 23.804 18.5875C23.6701 18.2565 23.5474 17.971 23.4364 17.7314C23.3255 17.4917 23.2455 17.3324 23.1967 17.253L20.6722 13.3583H18.9147Z" fill="#00AFD8"/>
<path d="M27.9789 19.2651C27.7156 19.0926 27.4487 18.8325 27.1777 18.484L26.3559 20.0202C26.7092 20.4029 27.0764 20.6839 27.4585 20.8631C27.8406 21.0424 28.2644 21.1321 28.73 21.1321C29.506 21.1321 30.1268 20.8881 30.5925 20.4004C31.0583 19.9124 31.2911 19.2669 31.2911 18.4631C31.2911 18.1461 31.2498 17.8572 31.1677 17.5968C31.0857 17.3366 30.9652 17.1134 30.8071 16.927C30.5728 16.6546 30.0842 16.4047 29.3416 16.177L29.2595 16.1513C28.9158 16.0477 28.6837 15.9389 28.5634 15.8253C28.4431 15.7116 28.383 15.5597 28.383 15.3701C28.383 15.184 28.4515 15.0314 28.5885 14.9125C28.7254 14.7936 28.9035 14.734 29.1226 14.734C29.3356 14.734 29.5509 14.785 29.7686 14.8865C29.9861 14.9883 30.1985 15.1394 30.4054 15.3391L30.976 13.8547C30.6809 13.6272 30.3681 13.4574 30.0379 13.3453C29.7076 13.2333 29.3584 13.1772 28.9902 13.1772C28.3084 13.1772 27.7538 13.4058 27.3263 13.8626C26.8985 14.3196 26.6848 14.9098 26.6848 15.6339C26.6848 16.1928 26.82 16.6323 27.091 16.953C27.3618 17.2736 27.8246 17.5343 28.4788 17.7341C28.9566 17.879 29.2633 18.0194 29.3989 18.1557C29.5341 18.2918 29.6019 18.4858 29.6019 18.7374C29.6019 18.965 29.5236 19.153 29.3668 19.3011C29.2101 19.4496 29.01 19.5237 28.7666 19.5237C28.5047 19.5237 28.2421 19.4376 27.9789 19.2651Z" fill="#00AFD8"/>
<path d="M32.3136 13.3583V20.9304H34.0894V17.9565H36.2763V16.3323H34.0894V15.0186H36.4086V13.3583H32.3136Z" fill="#00AFD8"/>
<path d="M37.3993 13.3583V20.9303H41.4943V19.234H39.1752V17.9565H41.3621V16.3323H39.1752V15.0186H41.4943V13.3583H37.3993Z" fill="#00AFD8"/>
<path fill-rule="evenodd" clip-rule="evenodd" d="M42.6995 13.3583V20.9303H44.407V17.9666L45.941 20.9303H47.9999L46.1785 17.8789C46.6655 17.758 47.0359 17.5142 47.2901 17.1469C47.5441 16.7797 47.6713 16.303 47.6713 15.7167C47.6713 15.3307 47.6065 14.9772 47.4772 14.6564C47.3477 14.3358 47.163 14.0719 46.9225 13.8652C46.7094 13.6825 46.456 13.5523 46.1623 13.4748C45.8686 13.3971 45.3491 13.3583 44.6033 13.3583H42.6995ZM44.7449 16.9376H44.407V14.9461H44.7722C45.1708 14.9461 45.4548 15.0264 45.6235 15.1867C45.7924 15.347 45.8769 15.6166 45.8769 15.996C45.8769 16.3203 45.7863 16.5583 45.6052 16.7099C45.4243 16.8618 45.1374 16.9376 44.7449 16.9376Z" fill="#00AFD8"/>
<path d="M1.95935 15.1479V20.9304H3.78086V15.1479H5.2783V13.3583H0.461914V15.1479H1.95935Z" fill="#00AFD8"/>
<path d="M21.3527 1.04822L22.5659 6.248C22.6231 6.48215 22.6758 6.72612 22.7242 6.98014C22.7726 7.23417 22.823 7.52552 22.8759 7.8542C22.9419 7.46565 22.9979 7.14576 23.044 6.89415C23.0901 6.64267 23.1352 6.42712 23.1792 6.248L24.3133 1.04822H26.9709L24.2409 11.9858H21.8011L20.6075 7.31634C20.5634 7.15187 20.491 6.83071 20.3899 6.35259C20.3459 6.13857 20.3108 5.97155 20.2845 5.85206C20.2624 5.95665 20.2317 6.10366 20.1921 6.29284C20.0911 6.77593 20.0141 7.11722 19.9614 7.31634L18.7876 11.9858H16.3411L13.6177 1.04822H16.2751L17.3829 6.27781C17.4357 6.54687 17.4874 6.8158 17.5379 7.08473C17.5884 7.35367 17.6357 7.63012 17.6797 7.91395C17.7212 7.69445 17.7641 7.47529 17.8083 7.25646C17.8751 6.92956 17.9444 6.60328 18.016 6.27768L19.2294 1.0481H21.3527V1.04822ZM27.9468 11.9858V1.04822H30.6044V11.9858H27.9468ZM32.7277 11.9858V1.04822H35.4774C36.5543 1.04822 37.305 1.10415 37.7293 1.21626C38.1535 1.32824 38.5194 1.5164 38.8273 1.78024C39.1745 2.07911 39.4416 2.46015 39.6285 2.92336C39.8154 3.38657 39.9087 3.89717 39.9087 4.45491C39.9087 5.30171 39.7252 5.99015 39.3582 6.52063C38.991 7.0511 38.4559 7.40335 37.7526 7.57776L40.3837 11.9858H37.4096L35.194 7.7049V11.9859H32.7277V11.9858ZM35.194 6.21819H35.6819C36.2491 6.21819 36.6633 6.10863 36.925 5.88951C37.1865 5.67039 37.3173 5.32668 37.3173 4.8585C37.3173 4.3107 37.1954 3.92087 36.9513 3.68926C36.7073 3.45778 36.2974 3.34185 35.7213 3.34185H35.194V6.21819ZM41.3859 11.9858V1.04822H47.301V3.44645H43.9511V5.34413H47.1097V7.68999H43.9511V9.53532H47.301V11.9858H41.3859Z" fill="#006E90"/>
<path d="M0.541504 0.968018H12.5861V3.13374H0.541504V0.968018Z" fill="url(#paint0_linear_264_1273)"/>
<path d="M0.541504 5.17182H12.5861V7.33754H0.541504V5.17182Z" fill="url(#paint1_linear_264_1273)"/>
<path d="M12.5861 9.75793H0.541504V11.9237H12.5861V9.75793Z" fill="url(#paint2_linear_264_1273)"/>
<defs>
<linearGradient id="paint0_linear_264_1273" x1="0.541504" y1="10.8408" x2="12.5861" y2="10.8408" gradientUnits="userSpaceOnUse">
<stop stop-color="#41E700" stop-opacity="0"/>
<stop offset="0.736" stop-color="#3ACD00"/>
<stop offset="0.781" stop-color="#36BE00"/>
<stop offset="0.926" stop-color="#299100"/>
<stop offset="1" stop-color="#248000"/>
</linearGradient>
<linearGradient id="paint1_linear_264_1273" x1="0.541504" y1="10.8408" x2="12.5861" y2="10.8408" gradientUnits="userSpaceOnUse">
<stop stop-color="#41E700" stop-opacity="0"/>
<stop offset="0.736" stop-color="#3ACD00"/>
<stop offset="0.781" stop-color="#36BE00"/>
<stop offset="0.926" stop-color="#299100"/>
<stop offset="1" stop-color="#248000"/>
</linearGradient>
<linearGradient id="paint2_linear_264_1273" x1="0.541504" y1="10.8408" x2="12.5861" y2="10.8408" gradientUnits="userSpaceOnUse">
<stop stop-color="#41E700" stop-opacity="0"/>
<stop offset="0.736" stop-color="#3ACD00"/>
<stop offset="0.781" stop-color="#36BE00"/>
<stop offset="0.926" stop-color="#299100"/>
<stop offset="1" stop-color="#248000"/>
</linearGradient>
</defs>
</svg>
